<svg width="512" height="128" viewBox="0 0 512 128" fill="none" xmlns="http://www.w3.org/2000/svg">
<g clip-path="url(#clip0_1_6)">
<rect width="512" height="128" fill="white"/>
<path d="M26.6641 105.133C22.8359 105.133 19.4245 104.469 16.4297 103.141C13.4349 101.786 11.0651 99.7943 9.32031 97.1641C7.60156 94.5078 6.74219 91.2005 6.74219 87.2422C6.74219 83.9089 7.35417 81.1094 8.57813 78.8437C9.80208 76.5781 11.4688 74.7552 13.5781 73.375C15.6875 71.9948 18.0833 70.9531 20.7656 70.25C23.474 69.5469 26.3125 69.0521 29.2813 68.7656C32.7708 68.401 35.5833 68.0625 37.7188 67.75C39.8542 67.4115 41.4036 66.9167 42.3672 66.2656C43.3307 65.6146 43.8125 64.651 43.8125 63.375V63.1406C43.8125 60.6667 43.0313 58.7526 41.4687 57.3984C39.9323 56.0443 37.7448 55.3672 34.9062 55.3672C31.9115 55.3672 29.5286 56.0312 27.7578 57.3594C25.987 58.6615 24.8151 60.3021 24.2422 62.2812L8.85156 61.0312C9.63281 57.3854 11.1693 54.2344 13.4609 51.5781C15.7526 48.8958 18.7083 46.8385 22.3281 45.4062C25.974 43.9479 30.1927 43.2188 34.9844 43.2188C38.3177 43.2188 41.5078 43.6094 44.5547 44.3906C47.6276 45.1719 50.349 46.3828 52.7188 48.0234C55.1146 49.6641 57.0026 51.7734 58.3828 54.3516C59.763 56.9036 60.4531 59.9635 60.4531 63.5312V104H44.6719V95.6797H44.2031C43.2396 97.5547 41.9505 99.2083 40.3359 100.641C38.7214 102.047 36.7812 103.154 34.5156 103.961C32.25 104.742 29.6328 105.133 26.6641 105.133ZM31.4297 93.6484C33.8776 93.6484 36.0391 93.1667 37.9141 92.2031C39.7891 91.2135 41.2604 89.8854 42.3281 88.2188C43.3958 86.5521 43.9297 84.6641 43.9297 82.5547V76.1875C43.4089 76.526 42.6927 76.8385 41.7813 77.125C40.8958 77.3854 39.8932 77.6328 38.7734 77.8672C37.6536 78.0755 36.5339 78.2708 35.4141 78.4531C34.2943 78.6094 33.2786 78.7526 32.3672 78.8828C30.4141 79.1693 28.7083 79.625 27.25 80.25C25.7917 80.875 24.6589 81.7214 23.8516 82.7891C23.0443 83.8307 22.6406 85.1328 22.6406 86.6953C22.6406 88.9609 23.4609 90.6927 25.1016 91.8906C26.7682 93.0625 28.8776 93.6484 31.4297 93.6484ZM90.0039 24V104H73.3633V24H90.0039ZM119.975 24V104H103.334V24H119.975ZM160.648 105.172C154.477 105.172 149.164 103.922 144.711 101.422C140.284 98.8958 136.872 95.3281 134.477 90.7187C132.081 86.0833 130.883 80.6016 130.883 74.2734C130.883 68.1016 132.081 62.6849 134.477 58.0234C136.872 53.362 140.245 49.7292 144.594 47.125C148.969 44.5208 154.099 43.2188 159.984 43.2188C163.943 43.2188 167.628 43.8568 171.039 45.1328C174.477 46.3828 177.471 48.2708 180.023 50.7969C182.602 53.3229 184.607 56.5 186.039 60.3281C187.471 64.1302 188.188 68.5833 188.188 73.6875V78.2578H137.523V67.9453H172.523C172.523 65.5495 172.003 63.4271 170.961 61.5781C169.919 59.7292 168.474 58.2839 166.625 57.2422C164.802 56.1745 162.68 55.6406 160.258 55.6406C157.732 55.6406 155.492 56.2266 153.539 57.3984C151.612 58.5443 150.102 60.0937 149.008 62.0469C147.914 63.974 147.354 66.1224 147.328 68.4922V78.2969C147.328 81.2656 147.875 83.8307 148.969 85.9922C150.089 88.1536 151.664 89.8203 153.695 90.9922C155.727 92.1641 158.135 92.75 160.922 92.75C162.771 92.75 164.464 92.4896 166 91.9688C167.536 91.4479 168.852 90.6667 169.945 89.625C171.039 88.5833 171.872 87.3073 172.445 85.7969L187.836 86.8125C187.055 90.5104 185.453 93.7396 183.031 96.5C180.635 99.2344 177.536 101.37 173.734 102.906C169.958 104.417 165.596 105.172 160.648 105.172ZM221.156 104.977C216.599 104.977 212.471 103.805 208.773 101.461C205.102 99.0911 202.185 95.6146 200.023 91.0312C197.888 86.4219 196.82 80.7708 196.82 74.0781C196.82 67.2031 197.927 61.487 200.141 56.9297C202.354 52.3464 205.297 48.9219 208.969 46.6563C212.667 44.3646 216.716 43.2188 221.117 43.2188C224.477 43.2188 227.276 43.7917 229.516 44.9375C231.781 46.0573 233.604 47.4635 234.984 49.1562C236.391 50.8229 237.458 52.4635 238.188 54.0781H238.695V24H255.297V104H238.891V94.3906H238.188C237.406 96.0573 236.299 97.7109 234.867 99.3516C233.461 100.966 231.625 102.307 229.359 103.375C227.12 104.443 224.385 104.977 221.156 104.977ZM226.43 91.7344C229.112 91.7344 231.378 91.0052 233.227 89.5469C235.102 88.0625 236.534 85.9922 237.523 83.3359C238.539 80.6797 239.047 77.5677 239.047 74C239.047 70.4323 238.552 67.3333 237.563 64.7031C236.573 62.0729 235.141 60.0417 233.266 58.6094C231.391 57.1771 229.112 56.4609 226.43 56.4609C223.695 56.4609 221.391 57.2031 219.516 58.6875C217.641 60.1719 216.221 62.2292 215.258 64.8594C214.294 67.4896 213.813 70.5365 213.813 74C213.813 77.4896 214.294 80.5755 215.258 83.2578C216.247 85.9141 217.667 87.9974 219.516 89.5078C221.391 90.9922 223.695 91.7344 226.43 91.7344ZM268.979 104V44H285.111V54.4687H285.736C286.83 50.7448 288.666 47.9323 291.244 46.0313C293.822 44.1042 296.791 43.1406 300.15 43.1406C300.984 43.1406 301.882 43.1927 302.846 43.2969C303.809 43.401 304.656 43.5443 305.385 43.7266V58.4922C304.604 58.2578 303.523 58.0495 302.143 57.8672C300.762 57.6849 299.499 57.5938 298.354 57.5938C295.906 57.5938 293.718 58.1276 291.791 59.1953C289.89 60.237 288.38 61.6953 287.26 63.5703C286.166 65.4453 285.619 67.6068 285.619 70.0547V104H268.979ZM338.305 105.172C332.237 105.172 326.99 103.883 322.563 101.305C318.161 98.7005 314.763 95.0807 312.367 90.4453C309.971 85.7839 308.773 80.3802 308.773 74.2344C308.773 68.0365 309.971 62.6198 312.367 57.9844C314.763 53.3229 318.161 49.7031 322.563 47.125C326.99 44.5208 332.237 43.2188 338.305 43.2188C344.372 43.2188 349.607 44.5208 354.008 47.125C358.435 49.7031 361.846 53.3229 364.242 57.9844C366.638 62.6198 367.836 68.0365 367.836 74.2344C367.836 80.3802 366.638 85.7839 364.242 90.4453C361.846 95.0807 358.435 98.7005 354.008 101.305C349.607 103.883 344.372 105.172 338.305 105.172ZM338.383 92.2812C341.143 92.2812 343.448 91.5 345.297 89.9375C347.146 88.349 348.539 86.1875 349.477 83.4531C350.44 80.7187 350.922 77.6068 350.922 74.1172C350.922 70.6276 350.44 67.5156 349.477 64.7812C348.539 62.0469 347.146 59.8854 345.297 58.2969C343.448 56.7083 341.143 55.9141 338.383 55.9141C335.596 55.9141 333.253 56.7083 331.352 58.2969C329.477 59.8854 328.057 62.0469 327.094 64.7812C326.156 67.5156 325.688 70.6276 325.688 74.1172C325.688 77.6068 326.156 80.7187 327.094 83.4531C328.057 86.1875 329.477 88.349 331.352 89.9375C333.253 91.5 335.596 92.2812 338.383 92.2812ZM405.688 127.75C400.297 127.75 395.674 127.008 391.82 125.523C387.992 124.065 384.945 122.073 382.68 119.547C380.414 117.021 378.943 114.182 378.266 111.031L393.656 108.961C394.125 110.159 394.867 111.279 395.883 112.32C396.898 113.362 398.24 114.195 399.906 114.82C401.599 115.471 403.656 115.797 406.078 115.797C409.698 115.797 412.68 114.911 415.023 113.141C417.393 111.396 418.578 108.466 418.578 104.352V93.375H417.875C417.146 95.0417 416.052 96.6172 414.594 98.1016C413.135 99.5859 411.26 100.797 408.969 101.734C406.677 102.672 403.943 103.141 400.766 103.141C396.26 103.141 392.159 102.099 388.461 100.016C384.789 97.9062 381.859 94.6901 379.672 90.3672C377.51 86.0182 376.43 80.5234 376.43 73.8828C376.43 67.0859 377.536 61.4089 379.75 56.8516C381.964 52.2943 384.906 48.8828 388.578 46.6172C392.276 44.3516 396.326 43.2188 400.727 43.2188C404.086 43.2188 406.898 43.7917 409.164 44.9375C411.43 46.0573 413.253 47.4635 414.633 49.1562C416.039 50.8229 417.12 52.4635 417.875 54.0781H418.5V44H435.023V104.586C435.023 109.69 433.773 113.961 431.273 117.398C428.773 120.836 425.31 123.414 420.883 125.133C416.482 126.878 411.417 127.75 405.688 127.75ZM406.039 90.6406C408.721 90.6406 410.987 89.9766 412.836 88.6484C414.711 87.2943 416.143 85.3672 417.133 82.8672C418.148 80.3411 418.656 77.3203 418.656 73.8047C418.656 70.2891 418.161 67.2422 417.172 64.6641C416.182 62.0599 414.75 60.0417 412.875 58.6094C411 57.1771 408.721 56.4609 406.039 56.4609C403.305 56.4609 401 57.2031 399.125 58.6875C397.25 60.1458 395.831 62.1771 394.867 64.7812C393.904 67.3854 393.422 70.3932 393.422 73.8047C393.422 77.2682 393.904 80.263 394.867 82.7891C395.857 85.2891 397.276 87.2292 399.125 88.6094C401 89.9635 403.305 90.6406 406.039 90.6406ZM475.375 105.172C469.307 105.172 464.06 103.883 459.633 101.305C455.232 98.7005 451.833 95.0807 449.437 90.4453C447.042 85.7839 445.844 80.3802 445.844 74.2344C445.844 68.0365 447.042 62.6198 449.437 57.9844C451.833 53.3229 455.232 49.7031 459.633 47.125C464.06 44.5208 469.307 43.2188 475.375 43.2188C481.443 43.2188 486.677 44.5208 491.078 47.125C495.505 49.7031 498.917 53.3229 501.312 57.9844C503.708 62.6198 504.906 68.0365 504.906 74.2344C504.906 80.3802 503.708 85.7839 501.312 90.4453C498.917 95.0807 495.505 98.7005 491.078 101.305C486.677 103.883 481.443 105.172 475.375 105.172ZM475.453 92.2812C478.214 92.2812 480.518 91.5 482.367 89.9375C484.216 88.349 485.609 86.1875 486.547 83.4531C487.51 80.7187 487.992 77.6068 487.992 74.1172C487.992 70.6276 487.51 67.5156 486.547 64.7812C485.609 62.0469 484.216 59.8854 482.367 58.2969C480.518 56.7083 478.214 55.9141 475.453 55.9141C472.667 55.9141 470.323 56.7083 468.422 58.2969C466.547 59.8854 465.128 62.0469 464.164 64.7812C463.227 67.5156 462.758 70.6276 462.758 74.1172C462.758 77.6068 463.227 80.7187 464.164 83.4531C465.128 86.1875 466.547 88.349 468.422 89.9375C470.323 91.5 472.667 92.2812 475.453 92.2812Z" fill="#FF5A00"/>
</g>
<defs>
<clipPath id="clip0_1_6">
<rect width="512" height="128" fill="white"/>
</clipPath>
</defs>
</svg>
