<svg width="512" height="512" viewBox="0 0 512 512" fill="none" xmlns="http://www.w3.org/2000/svg">
<g clip-path="url(#clip0_1_5)">
<rect width="512" height="512" fill="white"/>
<path d="M26.6641 297.133C22.8359 297.133 19.4245 296.469 16.4297 295.141C13.4349 293.786 11.0651 291.794 9.32031 289.164C7.60156 286.508 6.74219 283.201 6.74219 279.242C6.74219 275.909 7.35417 273.109 8.57813 270.844C9.80208 268.578 11.4688 266.755 13.5781 265.375C15.6875 263.995 18.0833 262.953 20.7656 262.25C23.474 261.547 26.3125 261.052 29.2813 260.766C32.7708 260.401 35.5833 260.062 37.7188 259.75C39.8542 259.411 41.4036 258.917 42.3672 258.266C43.3307 257.615 43.8125 256.651 43.8125 255.375V255.141C43.8125 252.667 43.0313 250.753 41.4687 249.398C39.9323 248.044 37.7448 247.367 34.9062 247.367C31.9115 247.367 29.5286 248.031 27.7578 249.359C25.987 250.661 24.8151 252.302 24.2422 254.281L8.85156 253.031C9.63281 249.385 11.1693 246.234 13.4609 243.578C15.7526 240.896 18.7083 238.839 22.3281 237.406C25.974 235.948 30.1927 235.219 34.9844 235.219C38.3177 235.219 41.5078 235.609 44.5547 236.391C47.6276 237.172 50.349 238.383 52.7188 240.023C55.1146 241.664 57.0026 243.773 58.3828 246.352C59.763 248.904 60.4531 251.964 60.4531 255.531V296H44.6719V287.68H44.2031C43.2396 289.555 41.9505 291.208 40.3359 292.641C38.7214 294.047 36.7812 295.154 34.5156 295.961C32.25 296.742 29.6328 297.133 26.6641 297.133ZM31.4297 285.648C33.8776 285.648 36.0391 285.167 37.9141 284.203C39.7891 283.214 41.2604 281.885 42.3281 280.219C43.3958 278.552 43.9297 276.664 43.9297 274.555V268.188C43.4089 268.526 42.6927 268.839 41.7813 269.125C40.8958 269.385 39.8932 269.633 38.7734 269.867C37.6536 270.076 36.5339 270.271 35.4141 270.453C34.2943 270.609 33.2786 270.753 32.3672 270.883C30.4141 271.169 28.7083 271.625 27.25 272.25C25.7917 272.875 24.6589 273.721 23.8516 274.789C23.0443 275.831 22.6406 277.133 22.6406 278.695C22.6406 280.961 23.4609 282.693 25.1016 283.891C26.7682 285.062 28.8776 285.648 31.4297 285.648ZM90.0039 216V296H73.3633V216H90.0039ZM119.975 216V296H103.334V216H119.975ZM160.648 297.172C154.477 297.172 149.164 295.922 144.711 293.422C140.284 290.896 136.872 287.328 134.477 282.719C132.081 278.083 130.883 272.602 130.883 266.273C130.883 260.102 132.081 254.685 134.477 250.023C136.872 245.362 140.245 241.729 144.594 239.125C148.969 236.521 154.099 235.219 159.984 235.219C163.943 235.219 167.628 235.857 171.039 237.133C174.477 238.383 177.471 240.271 180.023 242.797C182.602 245.323 184.607 248.5 186.039 252.328C187.471 256.13 188.188 260.583 188.188 265.687V270.258H137.523V259.945H172.523C172.523 257.549 172.003 255.427 170.961 253.578C169.919 251.729 168.474 250.284 166.625 249.242C164.802 248.174 162.68 247.641 160.258 247.641C157.732 247.641 155.492 248.227 153.539 249.398C151.612 250.544 150.102 252.094 149.008 254.047C147.914 255.974 147.354 258.122 147.328 260.492V270.297C147.328 273.266 147.875 275.831 148.969 277.992C150.089 280.154 151.664 281.82 153.695 282.992C155.727 284.164 158.135 284.75 160.922 284.75C162.771 284.75 164.464 284.49 166 283.969C167.536 283.448 168.852 282.667 169.945 281.625C171.039 280.583 171.872 279.307 172.445 277.797L187.836 278.812C187.055 282.51 185.453 285.74 183.031 288.5C180.635 291.234 177.536 293.37 173.734 294.906C169.958 296.417 165.596 297.172 160.648 297.172ZM221.156 296.977C216.599 296.977 212.471 295.805 208.773 293.461C205.102 291.091 202.185 287.615 200.023 283.031C197.888 278.422 196.82 272.771 196.82 266.078C196.82 259.203 197.927 253.487 200.141 248.93C202.354 244.346 205.297 240.922 208.969 238.656C212.667 236.365 216.716 235.219 221.117 235.219C224.477 235.219 227.276 235.792 229.516 236.938C231.781 238.057 233.604 239.464 234.984 241.156C236.391 242.823 237.458 244.464 238.188 246.078H238.695V216H255.297V296H238.891V286.391H238.188C237.406 288.057 236.299 289.711 234.867 291.352C233.461 292.966 231.625 294.307 229.359 295.375C227.12 296.443 224.385 296.977 221.156 296.977ZM226.43 283.734C229.112 283.734 231.378 283.005 233.227 281.547C235.102 280.062 236.534 277.992 237.523 275.336C238.539 272.68 239.047 269.568 239.047 266C239.047 262.432 238.552 259.333 237.563 256.703C236.573 254.073 235.141 252.042 233.266 250.609C231.391 249.177 229.112 248.461 226.43 248.461C223.695 248.461 221.391 249.203 219.516 250.687C217.641 252.172 216.221 254.229 215.258 256.859C214.294 259.49 213.813 262.536 213.813 266C213.813 269.49 214.294 272.576 215.258 275.258C216.247 277.914 217.667 279.997 219.516 281.508C221.391 282.992 223.695 283.734 226.43 283.734ZM268.979 296V236H285.111V246.469H285.736C286.83 242.745 288.666 239.932 291.244 238.031C293.822 236.104 296.791 235.141 300.15 235.141C300.984 235.141 301.882 235.193 302.846 235.297C303.809 235.401 304.656 235.544 305.385 235.727V250.492C304.604 250.258 303.523 250.049 302.143 249.867C300.762 249.685 299.499 249.594 298.354 249.594C295.906 249.594 293.718 250.128 291.791 251.195C289.89 252.237 288.38 253.695 287.26 255.57C286.166 257.445 285.619 259.607 285.619 262.055V296H268.979ZM338.305 297.172C332.237 297.172 326.99 295.883 322.563 293.305C318.161 290.701 314.763 287.081 312.367 282.445C309.971 277.784 308.773 272.38 308.773 266.234C308.773 260.036 309.971 254.62 312.367 249.984C314.763 245.323 318.161 241.703 322.563 239.125C326.99 236.521 332.237 235.219 338.305 235.219C344.372 235.219 349.607 236.521 354.008 239.125C358.435 241.703 361.846 245.323 364.242 249.984C366.638 254.62 367.836 260.036 367.836 266.234C367.836 272.38 366.638 277.784 364.242 282.445C361.846 287.081 358.435 290.701 354.008 293.305C349.607 295.883 344.372 297.172 338.305 297.172ZM338.383 284.281C341.143 284.281 343.448 283.5 345.297 281.938C347.146 280.349 348.539 278.187 349.477 275.453C350.44 272.719 350.922 269.607 350.922 266.117C350.922 262.628 350.44 259.516 349.477 256.781C348.539 254.047 347.146 251.885 345.297 250.297C343.448 248.708 341.143 247.914 338.383 247.914C335.596 247.914 333.253 248.708 331.352 250.297C329.477 251.885 328.057 254.047 327.094 256.781C326.156 259.516 325.688 262.628 325.688 266.117C325.688 269.607 326.156 272.719 327.094 275.453C328.057 278.187 329.477 280.349 331.352 281.938C333.253 283.5 335.596 284.281 338.383 284.281ZM405.688 319.75C400.297 319.75 395.674 319.008 391.82 317.523C387.992 316.065 384.945 314.073 382.68 311.547C380.414 309.021 378.943 306.182 378.266 303.031L393.656 300.961C394.125 302.159 394.867 303.279 395.883 304.32C396.898 305.362 398.24 306.195 399.906 306.82C401.599 307.471 403.656 307.797 406.078 307.797C409.698 307.797 412.68 306.911 415.023 305.141C417.393 303.396 418.578 300.466 418.578 296.352V285.375H417.875C417.146 287.042 416.052 288.617 414.594 290.102C413.135 291.586 411.26 292.797 408.969 293.734C406.677 294.672 403.943 295.141 400.766 295.141C396.26 295.141 392.159 294.099 388.461 292.016C384.789 289.906 381.859 286.69 379.672 282.367C377.51 278.018 376.43 272.523 376.43 265.883C376.43 259.086 377.536 253.409 379.75 248.852C381.964 244.294 384.906 240.883 388.578 238.617C392.276 236.352 396.326 235.219 400.727 235.219C404.086 235.219 406.898 235.792 409.164 236.938C411.43 238.057 413.253 239.464 414.633 241.156C416.039 242.823 417.12 244.464 417.875 246.078H418.5V236H435.023V296.586C435.023 301.69 433.773 305.961 431.273 309.398C428.773 312.836 425.31 315.414 420.883 317.133C416.482 318.878 411.417 319.75 405.688 319.75ZM406.039 282.641C408.721 282.641 410.987 281.977 412.836 280.648C414.711 279.294 416.143 277.367 417.133 274.867C418.148 272.341 418.656 269.32 418.656 265.805C418.656 262.289 418.161 259.242 417.172 256.664C416.182 254.06 414.75 252.042 412.875 250.609C411 249.177 408.721 248.461 406.039 248.461C403.305 248.461 401 249.203 399.125 250.687C397.25 252.146 395.831 254.177 394.867 256.781C393.904 259.385 393.422 262.393 393.422 265.805C393.422 269.268 393.904 272.263 394.867 274.789C395.857 277.289 397.276 279.229 399.125 280.609C401 281.964 403.305 282.641 406.039 282.641ZM475.375 297.172C469.307 297.172 464.06 295.883 459.633 293.305C455.232 290.701 451.833 287.081 449.437 282.445C447.042 277.784 445.844 272.38 445.844 266.234C445.844 260.036 447.042 254.62 449.437 249.984C451.833 245.323 455.232 241.703 459.633 239.125C464.06 236.521 469.307 235.219 475.375 235.219C481.443 235.219 486.677 236.521 491.078 239.125C495.505 241.703 498.917 245.323 501.312 249.984C503.708 254.62 504.906 260.036 504.906 266.234C504.906 272.38 503.708 277.784 501.312 282.445C498.917 287.081 495.505 290.701 491.078 293.305C486.677 295.883 481.443 297.172 475.375 297.172ZM475.453 284.281C478.214 284.281 480.518 283.5 482.367 281.938C484.216 280.349 485.609 278.187 486.547 275.453C487.51 272.719 487.992 269.607 487.992 266.117C487.992 262.628 487.51 259.516 486.547 256.781C485.609 254.047 484.216 251.885 482.367 250.297C480.518 248.708 478.214 247.914 475.453 247.914C472.667 247.914 470.323 248.708 468.422 250.297C466.547 251.885 465.128 254.047 464.164 256.781C463.227 259.516 462.758 262.628 462.758 266.117C462.758 269.607 463.227 272.719 464.164 275.453C465.128 278.187 466.547 280.349 468.422 281.938C470.323 283.5 472.667 284.281 475.453 284.281Z" fill="#FF5A00"/>
</g>
<defs>
<clipPath id="clip0_1_5">
<rect width="512" height="512" fill="white"/>
</clipPath>
</defs>
</svg>
