<svg width="512" height="512" viewBox="0 0 512 512" fill="none" xmlns="http://www.w3.org/2000/svg">
<g clip-path="url(#clip0_1_8)">
<rect width="512" height="512" fill="white"/>
<path d="M99.1996 405.119C85.2791 405.119 72.8738 402.705 61.9837 397.875C51.0935 392.951 42.4761 385.706 36.1314 376.142C29.8814 366.483 26.7564 354.456 26.7564 340.062C26.7564 327.941 28.9818 317.761 33.4325 309.523C37.8833 301.284 43.9439 294.655 51.6143 289.636C59.2848 284.617 67.9969 280.83 77.7507 278.273C87.5992 275.716 97.9212 273.917 108.717 272.875C121.406 271.549 131.633 270.318 139.398 269.182C147.164 267.951 152.798 266.152 156.302 263.784C159.806 261.417 161.558 257.913 161.558 253.273V252.42C161.558 243.424 158.717 236.464 153.035 231.54C147.448 226.616 139.493 224.153 129.171 224.153C118.281 224.153 109.616 226.568 103.177 231.398C96.7375 236.133 92.4761 242.098 90.3928 249.295L34.4268 244.75C37.2678 231.492 42.8549 220.034 51.1882 210.375C59.5215 200.621 70.2697 193.14 83.4325 187.932C96.6901 182.629 112.031 179.977 129.455 179.977C141.576 179.977 153.177 181.398 164.256 184.239C175.431 187.08 185.326 191.483 193.944 197.449C202.656 203.415 209.522 211.085 214.54 220.46C219.559 229.741 222.069 240.867 222.069 253.841V401H164.683V370.744H162.978C159.474 377.562 154.787 383.576 148.915 388.784C143.044 393.898 135.989 397.922 127.751 400.858C119.512 403.699 109.995 405.119 99.1996 405.119ZM116.529 363.358C125.431 363.358 133.29 361.606 140.109 358.102C146.927 354.504 152.277 349.674 156.16 343.614C160.042 337.553 161.984 330.687 161.984 323.017V299.864C160.09 301.095 157.486 302.231 154.171 303.273C150.951 304.22 147.306 305.119 143.234 305.972C139.162 306.729 135.09 307.439 131.018 308.102C126.946 308.67 123.253 309.191 119.938 309.665C112.836 310.706 106.633 312.364 101.33 314.636C96.0272 316.909 91.9079 319.987 88.9723 323.869C86.0367 327.657 84.5689 332.392 84.5689 338.074C84.5689 346.312 87.5518 352.61 93.5178 356.966C99.5784 361.227 107.249 363.358 116.529 363.358ZM349.413 404.551C332.841 404.551 317.831 400.29 304.384 391.767C291.032 383.15 280.426 370.508 272.566 353.841C264.801 337.08 260.918 316.53 260.918 292.193C260.918 267.193 264.943 246.407 272.992 229.835C281.041 213.169 291.742 200.716 305.094 192.477C318.541 184.144 333.267 179.977 349.271 179.977C361.487 179.977 371.666 182.061 379.81 186.227C388.049 190.299 394.678 195.413 399.697 201.568C404.81 207.629 408.693 213.595 411.344 219.466H413.191V110.091H473.56V401H413.901V366.057H411.344C408.504 372.117 404.479 378.131 399.271 384.097C394.157 389.968 387.481 394.845 379.242 398.727C371.098 402.61 361.155 404.551 349.413 404.551ZM368.589 356.398C378.343 356.398 386.581 353.746 393.305 348.443C400.123 343.045 405.331 335.517 408.93 325.858C412.623 316.199 414.469 304.883 414.469 291.909C414.469 278.936 412.67 267.667 409.072 258.102C405.473 248.538 400.265 241.152 393.447 235.943C386.629 230.735 378.343 228.131 368.589 228.131C358.646 228.131 350.265 230.83 343.447 236.227C336.629 241.625 331.468 249.106 327.964 258.67C324.46 268.235 322.708 279.314 322.708 291.909C322.708 304.598 324.46 315.82 327.964 325.574C331.562 335.233 336.723 342.809 343.447 348.301C350.265 353.699 358.646 356.398 368.589 356.398Z" fill="#FF5A00"/>
</g>
<defs>
<clipPath id="clip0_1_8">
<rect width="512" height="512" fill="white"/>
</clipPath>
</defs>
</svg>
